{
	"asset":{
		"generator":"Khronos glTF Blender I/O v4.1.63",
		"version":"2.0"
	},
	"scene":0,
	"scenes":[
		{
			"name":"Scene",
			"nodes":[
				5
			]
		}
	],
	"nodes":[
		{
			"mesh":0,
			"name":"Spheres"
		},
		{
			"mesh":1,
			"name":"Spheres.001"
		},
		{
			"mesh":2,
			"name":"Spheres.002"
		},
		{
			"mesh":3,
			"name":"Spheres.003"
		},
		{
			"mesh":4,
			"name":"Spheres.004"
		},
		{
			"children":[
				0,
				1,
				2,
				3,
				4
			],
			"name":"Node_0",
			"rotation":[
				-0.70710688829422,
				0,
				0,
				0.7071066498756409
			],
			"scale":[
				0.4000000059604645,
				0.40000006556510925,
				0.40000006556510925
			]
		}
	],
	"materials":[
		{
			"name":"Material_0",
			"pbrMetallicRoughness":{
				"baseColorTexture":{
					"index":0
				},
				"metallicRoughnessTexture":{
					"index":1
				}
			}
		}
	],
	"meshes":[
		{
			"name":"Spheres",
			"primitives":[
				{
					"attributes":{
						"POSITION":0,
						"NORMAL":1,
						"TEXCOORD_0":2,
						"TANGENT":3
					},
					"indices":4,
					"material":0
				}
			]
		},
		{
			"name":"Spheres.001",
			"primitives":[
				{
					"attributes":{
						"POSITION":5,
						"NORMAL":6,
						"TEXCOORD_0":7,
						"TANGENT":8
					},
					"indices":9,
					"material":0
				}
			]
		},
		{
			"name":"Spheres.002",
			"primitives":[
				{
					"attributes":{
						"POSITION":10,
						"NORMAL":11,
						"TEXCOORD_0":12,
						"TANGENT":13
					},
					"indices":9,
					"material":0
				}
			]
		},
		{
			"name":"Spheres.003",
			"primitives":[
				{
					"attributes":{
						"POSITION":14,
						"NORMAL":15,
						"TEXCOORD_0":16,
						"TANGENT":17
					},
					"indices":9,
					"material":0
				}
			]
		},
		{
			"name":"Spheres.004",
			"primitives":[
				{
					"attributes":{
						"POSITION":18,
						"NORMAL":19,
						"TEXCOORD_0":20,
						"TANGENT":21
					},
					"indices":22,
					"material":0
				}
			]
		}
	],
	"textures":[
		{
			"sampler":0,
			"source":0
		},
		{
			"sampler":0,
			"source":1
		}
	],
	"images":[
		{
			"mimeType":"image/png",
			"name":"Spheres_BaseColor",
			"uri":"Spheres_BaseColor.png"
		},
		{
			"mimeType":"image/png",
			"name":"Spheres_MetalRough",
			"uri":"Spheres_MetalRough.png"
		}
	],
	"samplers":[
		{
			"magFilter":9729,
			"minFilter":9987
		}
	],
	"accessors":[
		{
			"bufferView":0,
			"componentType":5126,
			"count":36632,
			"max":[
				11.874730110168457,
				9,
				10.969940185546875
			],
			"min":[
				-12.186589241027832,
				-1,
				-12.35944938659668
			],
			"type":"VEC3"
		},
		{
			"bufferView":1,
			"componentType":5126,
			"count":36632,
			"type":"VEC3"
		},
		{
			"bufferView":2,
			"componentType":5126,
			"count":36632,
			"type":"VEC2"
		},
		{
			"bufferView":3,
			"componentType":5126,
			"count":36632,
			"type":"VEC4"
		},
		{
			"bufferView":4,
			"componentType":5123,
			"count":215088,
			"type":"SCALAR"
		},
		{
			"bufferView":5,
			"componentType":5126,
			"count":62736,
			"max":[
				10,
				9,
				10
			],
			"min":[
				5,
				-1,
				-7
			],
			"type":"VEC3"
		},
		{
			"bufferView":6,
			"componentType":5126,
			"count":62736,
			"type":"VEC3"
		},
		{
			"bufferView":7,
			"componentType":5126,
			"count":62736,
			"type":"VEC2"
		},
		{
			"bufferView":8,
			"componentType":5126,
			"count":62736,
			"type":"VEC4"
		},
		{
			"bufferView":9,
			"componentType":5123,
			"count":368640,
			"type":"SCALAR"
		},
		{
			"bufferView":10,
			"componentType":5126,
			"count":62736,
			"max":[
				4,
				9,
				10
			],
			"min":[
				-1,
				-1,
				-7
			],
			"type":"VEC3"
		},
		{
			"bufferView":11,
			"componentType":5126,
			"count":62736,
			"type":"VEC3"
		},
		{
			"bufferView":12,
			"componentType":5126,
			"count":62736,
			"type":"VEC2"
		},
		{
			"bufferView":13,
			"componentType":5126,
			"count":62736,
			"type":"VEC4"
		},
		{
			"bufferView":14,
			"componentType":5126,
			"count":62736,
			"max":[
				-2,
				9,
				10
			],
			"min":[
				-7,
				-1,
				-7
			],
			"type":"VEC3"
		},
		{
			"bufferView":15,
			"componentType":5126,
			"count":62736,
			"type":"VEC3"
		},
		{
			"bufferView":16,
			"componentType":5126,
			"count":62736,
			"type":"VEC2"
		},
		{
			"bufferView":17,
			"componentType":5126,
			"count":62736,
			"type":"VEC4"
		},
		{
			"bufferView":18,
			"componentType":5126,
			"count":31368,
			"max":[
				-8,
				9,
				10
			],
			"min":[
				-10,
				-1,
				-7
			],
			"type":"VEC3"
		},
		{
			"bufferView":19,
			"componentType":5126,
			"count":31368,
			"type":"VEC3"
		},
		{
			"bufferView":20,
			"componentType":5126,
			"count":31368,
			"type":"VEC2"
		},
		{
			"bufferView":21,
			"componentType":5126,
			"count":31368,
			"type":"VEC4"
		},
		{
			"bufferView":22,
			"componentType":5123,
			"count":184320,
			"type":"SCALAR"
		}
	],
	"bufferViews":[
		{
			"buffer":0,
			"byteLength":439584,
			"byteOffset":0,
			"target":34962
		},
		{
			"buffer":0,
			"byteLength":439584,
			"byteOffset":439584,
			"target":34962
		},
		{
			"buffer":0,
			"byteLength":293056,
			"byteOffset":879168,
			"target":34962
		},
		{
			"buffer":0,
			"byteLength":586112,
			"byteOffset":1172224,
			"target":34962
		},
		{
			"buffer":0,
			"byteLength":430176,
			"byteOffset":1758336,
			"target":34963
		},
		{
			"buffer":0,
			"byteLength":752832,
			"byteOffset":2188512,
			"target":34962
		},
		{
			"buffer":0,
			"byteLength":752832,
			"byteOffset":2941344,
			"target":34962
		},
		{
			"buffer":0,
			"byteLength":501888,
			"byteOffset":3694176,
			"target":34962
		},
		{
			"buffer":0,
			"byteLength":1003776,
			"byteOffset":4196064,
			"target":34962
		},
		{
			"buffer":0,
			"byteLength":737280,
			"byteOffset":5199840,
			"target":34963
		},
		{
			"buffer":0,
			"byteLength":752832,
			"byteOffset":5937120,
			"target":34962
		},
		{
			"buffer":0,
			"byteLength":752832,
			"byteOffset":6689952,
			"target":34962
		},
		{
			"buffer":0,
			"byteLength":501888,
			"byteOffset":7442784,
			"target":34962
		},
		{
			"buffer":0,
			"byteLength":1003776,
			"byteOffset":7944672,
			"target":34962
		},
		{
			"buffer":0,
			"byteLength":752832,
			"byteOffset":8948448,
			"target":34962
		},
		{
			"buffer":0,
			"byteLength":752832,
			"byteOffset":9701280,
			"target":34962
		},
		{
			"buffer":0,
			"byteLength":501888,
			"byteOffset":10454112,
			"target":34962
		},
		{
			"buffer":0,
			"byteLength":1003776,
			"byteOffset":10956000,
			"target":34962
		},
		{
			"buffer":0,
			"byteLength":376416,
			"byteOffset":11959776,
			"target":34962
		},
		{
			"buffer":0,
			"byteLength":376416,
			"byteOffset":12336192,
			"target":34962
		},
		{
			"buffer":0,
			"byteLength":250944,
			"byteOffset":12712608,
			"target":34962
		},
		{
			"buffer":0,
			"byteLength":501888,
			"byteOffset":12963552,
			"target":34962
		},
		{
			"buffer":0,
			"byteLength":368640,
			"byteOffset":13465440,
			"target":34963
		}
	],
	"buffers":[
		{
			"byteLength":13834080,
			"uri":"MetalRoughSpheres.bin"
		}
	]
}
