{
	"asset":{
		"generator":"Khronos glTF Blender I/O v4.1.63",
		"version":"2.0"
	},
	"extensionsUsed": [
        "KHR_materials_ior",
        "KHR_materials_iridescence",
        "KHR_materials_transmission",
        "KHR_materials_volume"
    ],
	"scene":0,
	"scenes":[
		{
			"name":"Scene",
			"nodes":[
				1,
				3,
				4
			]
		}
	],
	"nodes":[
		{
			"mesh":0,
			"name":"olives"
		},
		{
			"children":[
				0
			],
			"mesh":1,
			"name":"glassDish",
			"rotation":[
				0,
				0.7660444974899292,
				0,
				0.642787516117096
			]
		},
		{
			"mesh":2,
			"name":"glassCover",
			"rotation":[
				-0.6532815098762512,
				-0.2705979645252228,
				0.27059802412986755,
				0.653281569480896
			],
			"translation":[
				-0.17451731860637665,
				0,
				0.03123972937464714
			]
		},
		{
			"children":[
				2
			],
			"name":"glassCover_animation",
			"rotation":[
				0.09869362413883209,
				0.6301666498184204,
				-0.7001854181289673,
				0.3207646310329437
			],
			"translation":[
				-0.14295625686645508,
				0.027819138020277023,
				-0.10009897500276566
			]
		},
		{
			"mesh":3,
			"name":"goldLeaf",
			"rotation":[
				0,
				0.7660444974899292,
				0,
				0.642787516117096
			]
		}
	],
	"materials":[
		{
			"name":"olives",
			"normalTexture":{
				"index":0
			},
			"occlusionTexture":{
				"index":1
			},
			"pbrMetallicRoughness":{
				"baseColorTexture":{
					"index":2
				},
				"metallicRoughnessTexture":{
					"index":1
				}
			},
			"extensions": {
                "KHR_materials_ior": {
                    "ior": 1.5
                },
                "KHR_materials_iridescence": {
                    "iridescenceFactor": 1,
					"iridescenceIor": 1.6,
                    "iridescenceThicknessMaximum": 550,
                    "iridescenceThicknessMinimum": 500
                },
                "KHR_materials_transmission": {
                    "transmissionFactor": 1
                },
                "KHR_materials_volume": {
                    "thicknessFactor": 0.1,
                    "thicknessTexture": {
                        "index": 5
                    }
                }
            }
		},
		{
			"doubleSided":false,
			"extensions":{
				"KHR_materials_transmission":{
					"transmissionFactor":1
				},
				"KHR_materials_volume":{
					"attenuationColor":[
						1,
						1,
						1
					],
					"thicknessFactor":0.009999999776482582
				},
				"KHR_materials_iridescence": {
                    "iridescenceFactor": 1,
                    "iridescenceTexture": {
                        "index": 9
                    },
					"iridescenceIor": 1.7,
                    "iridescenceThicknessMaximum": 550,
                    "iridescenceThicknessMinimum": 500,
                    "iridescenceThicknessTexture": {
                        "index": 0
                    }
                }
			},
			"name":"glassDish",
			"occlusionTexture":{
				"index":3
			},
			"pbrMetallicRoughness":{
				"metallicFactor":0,
				"roughnessFactor":0.07000000029802322
			}
		},
		{
			"doubleSided":false,
			"extensions":{
				"KHR_materials_transmission":{
					"transmissionFactor":1
				},
				"KHR_materials_volume":{
					"attenuationColor":[
						1,
						1,
						1
					],
					"thicknessFactor":0.10000000149011612,
					"thicknessTexture":{
						"index":4
					}
				},
				"KHR_materials_ior": {
                    "ior": 1.2
                },
                "KHR_materials_iridescence": {
                    "iridescenceFactor": 1,
                    "iridescenceTexture": {
                        "index": 10
                    },
					"iridescenceIor": 1.7,
                    "iridescenceThicknessMaximum": 550,
                    "iridescenceThicknessMinimum": 500,
                    "iridescenceThicknessTexture": {
                        "index": 11
                    }
                }
			},
			"name":"glassCover",
			"normalTexture":{
				"index":5,
				"scale":2
			},
			"pbrMetallicRoughness":{
				"metallicRoughnessTexture":{
					"index":6
				}
			}
		},
		{
			"alphaCutoff":0.5,
			"alphaMode":"MASK",
			"name":"goldLeaf",
			"normalTexture":{
				"index":7
			},
			"occlusionTexture":{
				"index":3
			},
			"pbrMetallicRoughness":{
				"baseColorTexture":{
					"index":8
				},
				"metallicRoughnessTexture":{
					"index":3
				}
			}
		}
	],
	"meshes":[
		{
			"name":"olives",
			"primitives":[
				{
					"attributes":{
						"POSITION":0,
						"NORMAL":1,
						"TEXCOORD_0":2,
						"TANGENT":3,
						"COLOR_0":4
					},
					"indices":5,
					"material":0
				}
			]
		},
		{
			"name":"glassDish",
			"primitives":[
				{
					"attributes":{
						"POSITION":6,
						"NORMAL":7,
						"TEXCOORD_0":8,
						"TANGENT":9,
						"COLOR_0":10
					},
					"indices":11,
					"material":1
				}
			]
		},
		{
			"name":"glassCover",
			"primitives":[
				{
					"attributes":{
						"POSITION":12,
						"NORMAL":13,
						"TEXCOORD_0":14,
						"TANGENT":15
					},
					"indices":16,
					"material":2
				}
			]
		},
		{
			"name":"goldLeaf",
			"primitives":[
				{
					"attributes":{
						"POSITION":17,
						"NORMAL":18,
						"TEXCOORD_0":19,
						"TANGENT":20,
						"COLOR_0":21
					},
					"indices":22,
					"material":3
				}
			]
		}
	],
	"textures":[
		{
			"sampler":0,
			"source":0
		},
		{
			"sampler":0,
			"source":1
		},
		{
			"sampler":0,
			"source":2
		},
		{
			"sampler":0,
			"source":3
		},
		{
			"sampler":0,
			"source":4
		},
		{
			"sampler":0,
			"source":5
		},
		{
			"sampler":0,
			"source":6
		},
		{
			"sampler":0,
			"source":7
		},
		{
			"sampler":0,
			"source":8
		},
		{
			"sampler":0,
			"source":9
		},
		{
			"sampler":0,
			"source":10
		},
		{
			"sampler":0,
			"source":11
		}
	],
	"images":[
		{
			"mimeType":"image/png",
			"name":"olives_nrm",
			"uri":"Tex/olives_nrm.png"
		},
		{
			"mimeType":"image/png",
			"name":"olives_orm",
			"uri":"Tex/olives_orm.png"
		},
		{
			"mimeType":"image/png",
			"name":"olives_col",
			"uri":"Tex/olives_col.png"
		},
		{
			"mimeType":"image/png",
			"name":"goldleaf_orm",
			"uri":"Tex/goldleaf_orm.png"
		},
		{
			"mimeType":"image/png",
			"name":"glasscover_thick",
			"uri":"Tex/glasscover_thick.png"
		},
		{
			"mimeType":"image/png",
			"name":"glasscover_nrm",
			"uri":"Tex/glasscover_nrm.png"
		},
		{
			"mimeType":"image/png",
			"name":"glasscover_orm",
			"uri":"Tex/glasscover_orm.png"
		},
		{
			"mimeType":"image/png",
			"name":"goldleaf_nrm",
			"uri":"Tex/goldleaf_nrm.png"
		},
		{
			"mimeType":"image/png",
			"name":"goldleaf_col",
			"uri":"Tex/goldleaf_col.png"
		},
		{
			"mimeType":"image/png",
			"name":"glassdish_irid",
            "uri": "glassdish_irid.png"
        },
		{
			"mimeType":"image/png",
			"name":"glasscover_irid",
            "uri": "glasscover_irid.png"
        },
		{
			"mimeType":"image/png",
			"name":"glasscover_thick",
            "uri": "glasscover_thick.png"
        }
	],
	"accessors":[
		{
			"bufferView":0,
			"componentType":5126,
			"count":10992,
			"max":[
				0.14576111733913422,
				0.0806366577744484,
				0.15495182573795319
			],
			"min":[
				-0.14923882484436035,
				0.003256671829149127,
				-0.15738913416862488
			],
			"type":"VEC3"
		},
		{
			"bufferView":1,
			"componentType":5126,
			"count":10992,
			"type":"VEC3"
		},
		{
			"bufferView":2,
			"componentType":5126,
			"count":10992,
			"type":"VEC2"
		},
		{
			"bufferView":3,
			"componentType":5126,
			"count":10992,
			"type":"VEC4"
		},
		{
			"bufferView":4,
			"componentType":5126,
			"count":10992,
			"type":"VEC3"
		},
		{
			"bufferView":5,
			"componentType":5123,
			"count":51840,
			"type":"SCALAR"
		},
		{
			"bufferView":6,
			"componentType":5126,
			"count":1193,
			"max":[
				0.22971130907535553,
				0.040525034070014954,
				0.22971129417419434
			],
			"min":[
				-0.22971130907535553,
				0.0009741891990415752,
				-0.22971130907535553
			],
			"type":"VEC3"
		},
		{
			"bufferView":7,
			"componentType":5126,
			"count":1193,
			"type":"VEC3"
		},
		{
			"bufferView":8,
			"componentType":5126,
			"count":1193,
			"type":"VEC2"
		},
		{
			"bufferView":9,
			"componentType":5126,
			"count":1193,
			"type":"VEC4"
		},
		{
			"bufferView":10,
			"componentType":5126,
			"count":1193,
			"type":"VEC3"
		},
		{
			"bufferView":11,
			"componentType":5123,
			"count":6144,
			"type":"SCALAR"
		},
		{
			"bufferView":12,
			"componentType":5126,
			"count":1858,
			"max":[
				0.17807453870773315,
				0.2385636270046234,
				0.17803524434566498
			],
			"min":[
				-0.17803525924682617,
				0.031241746619343758,
				-0.17807453870773315
			],
			"type":"VEC3"
		},
		{
			"bufferView":13,
			"componentType":5126,
			"count":1858,
			"type":"VEC3"
		},
		{
			"bufferView":14,
			"componentType":5126,
			"count":1858,
			"type":"VEC2"
		},
		{
			"bufferView":15,
			"componentType":5126,
			"count":1858,
			"type":"VEC4"
		},
		{
			"bufferView":16,
			"componentType":5123,
			"count":10752,
			"type":"SCALAR"
		},
		{
			"bufferView":17,
			"componentType":5126,
			"count":926,
			"max":[
				0.22836770117282867,
				0.03799545019865036,
				0.22836774587631226
			],
			"min":[
				-0.22836770117282867,
				-2.5810759325395338e-05,
				-0.22836771607398987
			],
			"type":"VEC3"
		},
		{
			"bufferView":18,
			"componentType":5126,
			"count":926,
			"type":"VEC3"
		},
		{
			"bufferView":19,
			"componentType":5126,
			"count":926,
			"type":"VEC2"
		},
		{
			"bufferView":20,
			"componentType":5126,
			"count":926,
			"type":"VEC4"
		},
		{
			"bufferView":21,
			"componentType":5126,
			"count":926,
			"type":"VEC3"
		},
		{
			"bufferView":22,
			"componentType":5123,
			"count":4608,
			"type":"SCALAR"
		}
	],
	"bufferViews":[
		{
			"buffer":0,
			"byteLength":131904,
			"byteOffset":0,
			"target":34962
		},
		{
			"buffer":0,
			"byteLength":131904,
			"byteOffset":131904,
			"target":34962
		},
		{
			"buffer":0,
			"byteLength":87936,
			"byteOffset":263808,
			"target":34962
		},
		{
			"buffer":0,
			"byteLength":175872,
			"byteOffset":351744,
			"target":34962
		},
		{
			"buffer":0,
			"byteLength":131904,
			"byteOffset":527616,
			"target":34962
		},
		{
			"buffer":0,
			"byteLength":103680,
			"byteOffset":659520,
			"target":34963
		},
		{
			"buffer":0,
			"byteLength":14316,
			"byteOffset":763200,
			"target":34962
		},
		{
			"buffer":0,
			"byteLength":14316,
			"byteOffset":777516,
			"target":34962
		},
		{
			"buffer":0,
			"byteLength":9544,
			"byteOffset":791832,
			"target":34962
		},
		{
			"buffer":0,
			"byteLength":19088,
			"byteOffset":801376,
			"target":34962
		},
		{
			"buffer":0,
			"byteLength":14316,
			"byteOffset":820464,
			"target":34962
		},
		{
			"buffer":0,
			"byteLength":12288,
			"byteOffset":834780,
			"target":34963
		},
		{
			"buffer":0,
			"byteLength":22296,
			"byteOffset":847068,
			"target":34962
		},
		{
			"buffer":0,
			"byteLength":22296,
			"byteOffset":869364,
			"target":34962
		},
		{
			"buffer":0,
			"byteLength":14864,
			"byteOffset":891660,
			"target":34962
		},
		{
			"buffer":0,
			"byteLength":29728,
			"byteOffset":906524,
			"target":34962
		},
		{
			"buffer":0,
			"byteLength":21504,
			"byteOffset":936252,
			"target":34963
		},
		{
			"buffer":0,
			"byteLength":11112,
			"byteOffset":957756,
			"target":34962
		},
		{
			"buffer":0,
			"byteLength":11112,
			"byteOffset":968868,
			"target":34962
		},
		{
			"buffer":0,
			"byteLength":7408,
			"byteOffset":979980,
			"target":34962
		},
		{
			"buffer":0,
			"byteLength":14816,
			"byteOffset":987388,
			"target":34962
		},
		{
			"buffer":0,
			"byteLength":11112,
			"byteOffset":1002204,
			"target":34962
		},
		{
			"buffer":0,
			"byteLength":9216,
			"byteOffset":1013316,
			"target":34963
		}
	],
	"samplers":[
		{
			"magFilter":9729,
			"minFilter":9987
		}
	],
	"buffers":[
		{
			"byteLength":1022532,
			"uri":"Olives.bin"
		}
	]
}
